<?xml version="1.0" encoding="utf-8"?>
<!-- Generator: Adobe Illustrator 22.0.0, SVG Export Plug-In . SVG Version: 6.00 Build 0)  -->
<svg version="1.1" id="Layer_1" xmlns="http://www.w3.org/2000/svg" xmlns:xlink="http://www.w3.org/1999/xlink" x="0px" y="0px"
	 viewBox="0 0 87.3 64.8" style="enable-background:new 0 0 87.3 64.8;" xml:space="preserve">
<style type="text/css">
	.st0{fill-rule:evenodd;clip-rule:evenodd;fill:#CADBE0;}
	.st1{fill:#ECF0F1;stroke:#CADBE0;stroke-width:6;stroke-linecap:round;stroke-miterlimit:10;}
</style>
<g id="arrow_1_">
	<g>
		<path class="st0" d="M59.5,27.6c-1-1-2.6-1-3.6,0l-9.2,9.1c0,0-0.1,0-0.1-0.1V7.1c0-1.4-1.2-2.5-2.6-2.5c-1.4,0-2.6,1.1-2.6,2.5
			v29.6c0,0.1-0.1,0.1-0.1,0.1l-9.2-9.1c-1.1-1.1-2.9-1-3.8,0.3c-0.8,1-0.5,2.5,0.4,3.4l13.5,13.3c1,1,2.7,1,3.7,0l13.7-13.4
			c0.5-0.5,0.7-1.1,0.7-1.8C60.3,28.7,60,28.1,59.5,27.6z"/>
	</g>
</g>
<line class="st1" x1="7.3" y1="60.3" x2="80.3" y2="60.3"/>
<line class="st1" x1="80.3" y1="43.3" x2="80.3" y2="60.3"/>
<line class="st1" x1="7.3" y1="43.3" x2="7.3" y2="59.3"/>
</svg>
