<?xml version="1.0" encoding="utf-8"?>
<!-- Generator: Adobe Illustrator 22.0.0, SVG Export Plug-In . SVG Version: 6.00 Build 0)  -->
<svg version="1.1" id="Layer_1" xmlns="http://www.w3.org/2000/svg" xmlns:xlink="http://www.w3.org/1999/xlink" x="0px" y="0px"
	 viewBox="0 0 100 124.9" style="enable-background:new 0 0 100 124.9;" xml:space="preserve">
<style type="text/css">
	.st0{fill-rule:evenodd;clip-rule:evenodd;fill:#1ABC9C;}
	.st1{fill-rule:evenodd;clip-rule:evenodd;fill:#16A085;}
	.st2{fill:#FFFFFF;}
</style>
<g id="file_back_1_">
	<g>
		<path class="st0" d="M75,0H4C1.8,0,0,1.8,0,4v117c0,2.2,1.8,4,4,4h92c2.2,0,4-1.8,4-4V25L75,0z"/>
	</g>
</g>
<g id="fold_1_">
	<g>
		<path class="st1" d="M75,0v21c0,2.2,1.8,4,4,4h21L75,0z"/>
	</g>
</g>
<g>
	<g>
		<path class="st2" d="M26.8,93.6c-0.3,0-0.6-0.1-0.9-0.4c-0.2-0.2-0.4-0.5-0.4-0.9c0-0.3,0.1-0.6,0.4-0.9c0.2-0.2,0.5-0.4,0.9-0.4
			c0.3,0,0.6,0.1,0.9,0.4c0.2,0.2,0.4,0.5,0.4,0.9c0,0.3-0.1,0.6-0.4,0.9C27.4,93.4,27.1,93.6,26.8,93.6z"/>
		<path class="st2" d="M42,93.3h-2.2l-3.6-6c-0.1-0.2-0.2-0.4-0.4-0.8h0c-0.1,0.2-0.2,0.4-0.4,0.8l-3.7,6h-2.2l5.2-7.9l-4.8-7.8h2.2
			l3.2,5.5c0.2,0.4,0.4,0.7,0.6,1.1h0c0.2-0.5,0.4-0.9,0.6-1.1l3.3-5.5H42L37,85.4L42,93.3z"/>
		<path class="st2" d="M52.5,93.3h-8.1V77.7h1.8v14h6.3V93.3z"/>
		<path class="st2" d="M54.2,92.7v-2.2c0.2,0.2,0.5,0.4,0.9,0.6c0.3,0.2,0.7,0.3,1.1,0.4s0.8,0.2,1.2,0.3c0.4,0.1,0.7,0.1,1.1,0.1
			c1.1,0,2-0.2,2.5-0.6c0.6-0.4,0.8-1,0.8-1.8c0-0.4-0.1-0.8-0.3-1.1s-0.4-0.6-0.8-0.9c-0.3-0.3-0.7-0.5-1.2-0.7
			c-0.4-0.2-0.9-0.5-1.4-0.7c-0.5-0.3-1.1-0.6-1.5-0.8c-0.5-0.3-0.9-0.6-1.2-0.9s-0.6-0.7-0.8-1.2s-0.3-0.9-0.3-1.5
			c0-0.7,0.2-1.3,0.5-1.9s0.7-1,1.2-1.3s1.1-0.6,1.7-0.8c0.7-0.2,1.3-0.3,2-0.3c1.5,0,2.7,0.2,3.4,0.6V80c-0.9-0.6-2.1-1-3.6-1
			c-0.4,0-0.8,0-1.2,0.1c-0.4,0.1-0.8,0.2-1.1,0.4c-0.3,0.2-0.6,0.4-0.8,0.7c-0.2,0.3-0.3,0.7-0.3,1.1c0,0.4,0.1,0.7,0.2,1
			c0.1,0.3,0.4,0.6,0.7,0.8c0.3,0.2,0.6,0.5,1.1,0.7c0.4,0.2,0.9,0.5,1.4,0.7c0.6,0.3,1.1,0.6,1.6,0.9c0.5,0.3,0.9,0.6,1.3,1
			c0.4,0.4,0.7,0.8,0.9,1.2c0.2,0.5,0.3,1,0.3,1.5c0,0.8-0.2,1.4-0.5,2c-0.3,0.5-0.7,1-1.2,1.3c-0.5,0.3-1.1,0.6-1.8,0.7
			c-0.7,0.1-1.4,0.2-2.1,0.2c-0.2,0-0.6,0-0.9-0.1c-0.4,0-0.7-0.1-1.1-0.2s-0.7-0.2-1.1-0.3C54.6,92.9,54.4,92.8,54.2,92.7z"/>
		<path class="st2" d="M77.6,93.3h-2.2l-3.6-6c-0.1-0.2-0.2-0.4-0.4-0.8h0c-0.1,0.2-0.2,0.4-0.4,0.8l-3.7,6H65l5.2-7.9l-4.8-7.8h2.2
			l3.2,5.5c0.2,0.4,0.4,0.7,0.6,1.1h0c0.2-0.5,0.4-0.9,0.6-1.1l3.3-5.5h2.1l-4.9,7.8L77.6,93.3z"/>
	</g>
</g>
</svg>
